<?xml version="1.0" encoding="UTF-8"?>
<svg id="Layer_1" data-name="Layer 1" xmlns="http://www.w3.org/2000/svg" viewBox="0 0 32 32">
  <defs>
    <style>
      .cls-1 {
        fill: #07182d;
      }

      .cls-2 {
        fill: #fff;
      }
    </style>
  </defs>
  <rect class="cls-2" x="0" width="32" height="32"/>
  <g>
    <g>
      <rect class="cls-1" x="9.05" y="18.77" width="1.4" height="5.56"/>
      <path class="cls-1" d="M21.77,20.37c-.06-.03-.51-.3-1.18-.3-.91,0-1.54.63-1.54,1.48s.6,1.48,1.54,1.48c.66,0,1.12-.26,1.18-.3v1.49c-.18.05-.66.2-1.28.2-1.58,0-2.96-1.09-2.96-2.88,0-1.66,1.25-2.88,2.96-2.88.66,0,1.15.16,1.28.2v1.49Z"/>
      <path class="cls-1" d="M7.12,20.37c-.06-.03-.51-.3-1.18-.3-.91,0-1.54.63-1.54,1.48s.6,1.48,1.54,1.48c.66,0,1.12-.26,1.18-.3v1.49c-.17.05-.65.2-1.28.2-1.58,0-2.96-1.09-2.96-2.88,0-1.66,1.25-2.88,2.96-2.88.66,0,1.15.16,1.28.2v1.49Z"/>
      <path class="cls-1" d="M29.12,21.55c0,1.59-1.23,2.88-2.94,2.88s-2.94-1.29-2.94-2.88,1.23-2.88,2.94-2.88,2.94,1.29,2.94,2.88ZM26.18,20.09c-.83,0-1.45.65-1.45,1.46s.62,1.46,1.45,1.46,1.45-.65,1.45-1.46-.62-1.46-1.45-1.46Z"/>
      <path class="cls-1" d="M15.77,20.04s-.61-.17-1.1-.17c-.56,0-.87.19-.87.46,0,.34.41.46.64.53l.39.12c.91.29,1.33.91,1.33,1.59,0,1.4-1.23,1.87-2.3,1.87-.75,0-1.45-.14-1.51-.15v-1.28c.12.03.71.21,1.33.21.7,0,1.02-.2,1.02-.52,0-.28-.28-.44-.63-.55-.09-.03-.21-.07-.3-.1-.78-.25-1.43-.71-1.43-1.63,0-1.04.78-1.74,2.07-1.74.68,0,1.33.17,1.37.18v1.19Z"/>
    </g>
    <path class="cls-1" d="M1.39,12.8c0-.38-.31-.69-.7-.69s-.7.31-.7.69v1.46c0,.39.31.7.7.7s.7-.31.7-.7v-1.46Z"/>
    <path class="cls-1" d="M5.22,10.88c0-.38-.31-.69-.7-.69s-.7.31-.7.69v3.38c0,.39.31.7.7.7s.7-.31.7-.7v-3.38Z"/>
    <path class="cls-1" d="M9.05,8.26c0-.38-.31-.69-.7-.69s-.7.31-.7.69v7.38c0,.39.31.7.7.7s.7-.31.7-.7v-7.38Z"/>
    <path class="cls-1" d="M12.87,10.88c0-.38-.31-.69-.7-.69s-.7.31-.7.69v3.38c0,.39.31.7.7.7s.7-.31.7-.7v-3.38Z"/>
    <path class="cls-1" d="M16.69,12.8c0-.38-.31-.69-.69-.69s-.7.31-.7.69v1.46c0,.39.31.7.7.7s.69-.31.69-.7v-1.46Z"/>
    <path class="cls-1" d="M20.52,10.88c0-.38-.31-.69-.69-.69s-.69.31-.69.69v3.38c0,.39.31.7.69.7s.69-.31.69-.7v-3.38Z"/>
    <path class="cls-1" d="M24.35,8.26c0-.38-.31-.69-.69-.69s-.69.31-.69.69v7.38c0,.39.31.7.69.7s.69-.31.69-.7v-7.38Z"/>
    <path class="cls-1" d="M28.18,10.88c0-.38-.31-.69-.7-.69s-.69.31-.69.69v3.38c0,.39.31.7.69.7s.7-.31.7-.7v-3.38Z"/>
    <path class="cls-1" d="M32,12.8c0-.38-.31-.69-.69-.69s-.7.31-.7.69v1.46c0,.39.31.7.7.7s.69-.31.69-.7v-1.46Z"/>
  </g>
</svg>